<svg preserveAspectRatio="none" width="100%" height="100%" overflow="visible" style="display: block;" viewBox="0 0 41.5418 41.2649" fill="none" xmlns="http://www.w3.org/2000/svg">
<path id="Path" d="M40.2099 34.8142C37.6557 31.4009 26.349 23.8036 18.7552 16.4397C17.3526 15.0795 17.1837 13.237 17.1046 11.5676C16.984 9.02037 16.7849 5.93851 14.0072 3.17933C10.3095 -0.493745 4.89275 -1.06835 1.90861 1.89588C-1.07552 4.86011 -0.497076 10.2407 3.20072 13.9138C5.9784 16.673 9.08096 16.8708 11.6452 16.9906C13.3258 17.0691 15.1806 17.2369 16.55 18.6302C23.9634 26.1733 31.6116 37.4047 35.0478 39.9419C37.0747 41.4384 39.1237 41.7973 40.6009 40.3302C42.0778 38.863 41.7165 36.8276 40.2099 34.8142Z" fill="var(--fill-0, #ECEFF1)"/>
</svg>
