<svg preserveAspectRatio="none" width="100%" height="100%" overflow="visible" style="display: block;" viewBox="0 0 112.509 102.088" fill="none" xmlns="http://www.w3.org/2000/svg">
<path id="Path" opacity="0.162863" fill-rule="evenodd" clip-rule="evenodd" d="M29.8495 35.8849C29.8929 19.7878 42.2122 13.6602 57.4026 13.6602H59.4028C72.4899 13.6602 84.9558 8.62238 88.4795 0C88.4795 21.4427 78.8326 28.2911 67.8662 28.2911C62.3026 28.2911 57.4389 28.2911 57.4028 35.8849C57.4026 43.5641 62.2818 43.5641 67.8662 43.5641H84.9558C100.173 43.5641 112.509 56.6651 112.509 72.8259C112.509 88.9867 100.173 102.088 84.9558 102.088H0C0 88.7975 10.0991 77.9982 22.6129 77.9067L57.9325 77.7028C63.0049 77.7028 67.1169 73.3359 67.1169 67.9489C67.1169 62.562 63.0049 58.195 57.9325 58.195H57.4026C42.1854 58.195 29.8493 52.0458 29.8493 35.8849H29.8495Z" fill="var(--fill-0, #4282F3)"/>
</svg>
