<svg preserveAspectRatio="none" width="100%" height="100%" overflow="visible" style="display: block;" viewBox="0 0 31.9398 28.97" fill="none" xmlns="http://www.w3.org/2000/svg">
<g id="Icon">
<ellipse id="Oval" opacity="0.3" cx="25.36" cy="22.0547" rx="4.60989" ry="4.94532" stroke="var(--stroke-0, #081E44)" stroke-width="3.93984"/>
<ellipse id="Oval_2" opacity="0.3" cx="6.57981" cy="22.0547" rx="4.60989" ry="4.94532" stroke="var(--stroke-0, #081E44)" stroke-width="3.93984"/>
<path id="Path" fill-rule="evenodd" clip-rule="evenodd" d="M26.4396 9.67308H22.6933C22.6933 9.67308 21.2218 6.51675 20.7105 5.95563C19.6165 4.75258 17.8392 4.75258 16.7451 5.95563L11.8376 11.3453C10.7918 12.4931 10.7563 14.3156 11.7073 15.5252L11.8939 15.751C12.1695 16.0386 12.4834 16.2538 12.819 16.3946L15.6107 18.3374L13.9347 23.8011C13.6829 24.6053 14.0725 25.4816 14.8048 25.7582C15.5374 26.0347 16.3353 25.6068 16.587 24.8023L18.9832 17.0381L16.2909 15.1647L20.0863 10.9963L21.3021 12.7529H26.4396C27.2139 12.7529 27.8417 12.0634 27.8417 11.213C27.8417 10.3626 27.2139 9.67308 26.4396 9.67308Z" fill="var(--fill-0, #081E44)"/>
<ellipse id="Oval_3" cx="23.4692" cy="3.188" rx="3.00346" ry="3.188" fill="var(--fill-0, #081E44)"/>
</g>
</svg>
