<svg preserveAspectRatio="none" width="100%" height="100%" overflow="visible" style="display: block;" viewBox="0 0 30.0922 27.6" fill="none" xmlns="http://www.w3.org/2000/svg">
<g id="Group 7">
<path id="Shape" fill-rule="evenodd" clip-rule="evenodd" d="M26.0463 25.23C26.0764 25.2553 26.0937 25.27 26.0972 25.2735C26.6588 25.7548 26.739 26.5571 26.3379 27.1186C26.0571 27.4395 25.6961 27.6 25.2949 27.6C25.0141 27.6 24.7333 27.5198 24.4927 27.3192C24.2921 27.1588 22.0859 25.113 19.639 22.265C18.0746 20.4599 16.5503 19.5373 15.026 19.6175C13.2611 19.6576 11.7769 20.9814 10.9345 21.9441C8.48763 24.9124 6.04075 27.1588 5.84018 27.3192C5.59951 27.5198 5.31872 27.6 5.03793 27.6C4.6368 27.6 4.23567 27.4395 3.99499 27.1186C3.55375 26.5571 3.63398 25.7147 4.19556 25.2735C4.19904 25.27 4.21613 25.2553 4.24568 25.2299C4.5564 24.9632 6.24456 23.514 7.96617 21.4627C7.97899 21.4456 7.9941 21.4253 8.01143 21.4021C8.15673 21.2069 8.45871 20.8012 8.88876 20.2995C9.06687 20.0566 9.26459 19.8088 9.46674 19.5555C10.2662 18.5536 11.1351 17.4647 11.1351 16.2481V11.3944C11.1351 10.1055 10.3221 9.11224 9.54557 8.16362C9.33127 7.90181 9.11975 7.6434 8.92888 7.38311L7.80571 5.97916C6.12827 4.00998 4.51712 2.63753 4.20791 2.37413C4.17699 2.34779 4.15909 2.33254 4.15544 2.32889C3.59386 1.88765 3.51364 1.04528 3.95488 0.483697C4.39612 -0.0778828 5.23849 -0.158109 5.80007 0.283133C5.80302 0.285493 5.80651 0.288279 5.81053 0.291487C6.07962 0.50636 8.72183 2.61618 10.9746 5.73848C12.4187 7.343 13.8628 8.14526 15.2667 8.06503C16.8712 8.02492 18.2351 6.90176 19.1175 5.97916C21.4842 2.6899 24.252 0.443585 24.4526 0.283133C25.0141 -0.158109 25.8565 -0.0778828 26.2978 0.483697C26.739 1.04528 26.6588 1.88765 26.0972 2.32889C26.0937 2.33241 26.0769 2.34704 26.0479 2.37226C25.7468 2.63461 24.1303 4.04317 22.4469 6.01927L21.1633 7.6639C20.9656 7.95059 20.7435 8.2251 20.5211 8.50003C19.841 9.34068 19.1577 10.1853 19.1577 11.3944V16.2481C19.1577 17.5155 20.1845 18.7829 21.1076 19.9223C21.3239 20.1893 21.5345 20.4493 21.7249 20.7006C21.8252 20.8209 21.9154 20.9413 22.0057 21.0616C22.0959 21.1819 22.1862 21.3023 22.2865 21.4226C24.0083 23.5108 25.7301 24.9633 26.0463 25.23ZM18.0345 3.89329C18.0345 5.49781 16.7509 6.78142 15.1464 6.78142C13.582 6.78142 12.2984 5.49781 12.2582 3.89329C12.2582 2.28878 13.5419 1.00516 15.1464 1.00516C16.7509 1.00516 18.0345 2.28878 18.0345 3.89329Z" fill="var(--fill-0, #081E44)"/>
<path id="Combined Shape" opacity="0.3" fill-rule="evenodd" clip-rule="evenodd" d="M29.7876 22.2249C29.7475 22.2249 28.6243 21.2622 27.461 19.8983C27.3808 19.778 27.1802 19.4972 26.8994 19.1763C26.7933 19.0323 26.6786 18.8868 26.5623 18.7394C26.0633 18.1066 25.5356 17.4375 25.5356 16.6893V15.2853C25.5356 14.6013 26.0176 13.9655 26.4773 13.3592L26.4773 13.3591C26.6106 13.1832 26.7421 13.0098 26.8593 12.8385L27.5412 11.956C28.5387 10.7805 29.5044 9.9529 29.7363 9.75424C29.7655 9.7292 29.7831 9.71415 29.7876 9.70966C30.1486 9.42887 30.1887 8.94751 29.9079 8.5865C29.6271 8.22548 29.1458 8.18537 28.7847 8.46616C28.6644 8.54639 27.0198 9.87011 25.6158 11.7955C23.2893 14.804 20.7221 12.9187 20.7221 12.9187C20.7221 16.7695 23.9712 19.6577 23.9712 19.6577C25.3543 21.1051 27.5371 22.5784 28.4097 23.1674C28.6253 23.3129 28.7609 23.4044 28.7847 23.4283C28.9452 23.5486 29.1056 23.5887 29.2661 23.5887C29.5068 23.5887 29.7475 23.4684 29.9079 23.2678C30.1887 23.0271 30.1486 22.5057 29.7876 22.2249ZM9.37012 12.9989C9.37012 16.8497 6.12097 19.7379 6.12097 19.7379C4.92721 20.9872 3.13781 22.2557 2.10917 22.9849L2.10915 22.9849L2.10912 22.9849C1.65152 23.3093 1.34448 23.527 1.30743 23.5887C1.18709 23.7091 0.986526 23.7492 0.826075 23.7492C0.585397 23.7492 0.34472 23.6288 0.184269 23.4283C-0.0965216 23.0672 -0.0564087 22.5859 0.304607 22.3051C0.309032 22.3007 0.327121 22.2855 0.357314 22.2602C0.600854 22.0561 1.63188 21.192 2.63115 19.9786C2.71138 19.8582 2.91194 19.5774 3.19273 19.2565C3.31608 19.0763 3.45737 18.8937 3.60123 18.7079L3.60124 18.7079C4.06558 18.1081 4.55657 17.4739 4.55657 16.7695V15.3656C4.55657 14.6577 4.08426 14.0442 3.62888 13.4528C3.49076 13.2734 3.3542 13.0961 3.23285 12.9187L2.55093 12.0362C1.42777 10.7125 0.34472 9.78988 0.304607 9.78988C-0.0162958 9.50909 -0.0965216 9.02774 0.184269 8.66672C0.465059 8.34582 0.946413 8.2656 1.30743 8.54639C1.42777 8.62661 3.0724 9.95034 4.47635 11.8758C6.80289 14.9243 9.37012 12.9989 9.37012 12.9989ZM7.00346 8.98763C7.96617 8.98763 8.76842 9.78988 8.76842 10.7526C8.76842 11.7554 7.96617 12.5176 7.00346 12.5176C6.04075 12.5176 5.23849 11.7153 5.23849 10.7526C5.23849 9.78988 6.04075 8.98763 7.00346 8.98763ZM21.3238 10.7927C21.3238 9.83 22.126 9.02774 23.0887 9.02774C24.0514 9.02774 24.8537 9.78988 24.8537 10.7927C24.8537 11.7554 24.0514 12.5577 23.0887 12.5577C22.126 12.5577 21.3238 11.7554 21.3238 10.7927Z" fill="var(--fill-0, #081E44)"/>
</g>
</svg>
