<svg preserveAspectRatio="none" width="100%" height="100%" overflow="visible" style="display: block;" viewBox="0 0 12 10.8" fill="none" xmlns="http://www.w3.org/2000/svg">
<path id="Mask" d="M11.9796 4.06912C11.9253 3.86374 11.7622 3.76105 11.5447 3.70971L8.06569 3.2476L6.48924 0.269563C6.32616 -0.0898544 5.67384 -0.0898544 5.51076 0.269563L3.93431 3.19625L0.509626 3.70971C0.292186 3.70971 0.129105 3.86374 0.0203851 4.06912C-0.0339751 4.2745 0.0203851 4.47989 0.183465 4.58258L2.68403 6.89312L2.08607 10.1792C2.03171 10.3846 2.14043 10.59 2.30351 10.6927C2.46659 10.7954 2.68403 10.8467 2.90147 10.744L6 9.20366L9.09853 10.744C9.20725 10.744 9.26161 10.744 9.37033 10.744C9.47905 10.744 9.58777 10.6927 9.69649 10.6413C9.85957 10.5386 9.96829 10.3333 9.91393 10.1279L9.31597 6.84177L11.8165 4.53123C11.9796 4.42854 12.034 4.22316 11.9796 4.06912Z" fill="var(--fill-0, #FFB230)"/>
</svg>
