<svg preserveAspectRatio="none" width="100%" height="100%" overflow="visible" style="display: block;" viewBox="0 0 18.5 22.4999" fill="none" xmlns="http://www.w3.org/2000/svg">
<g id="icon / share">
<g id="Mask">
<path d="M17.25 10.2362C17.8499 10.2362 18.2499 10.6366 18.25 11.2372V19.247C18.2498 20.9487 16.9498 22.2499 15.25 22.2499H3.25C1.55016 22.2499 0.250246 20.9487 0.25 19.247V11.2372C0.25008 10.6366 0.65006 10.2362 1.25 10.2362C1.84994 10.2362 2.24992 10.6366 2.25 11.2372V19.247C2.25021 19.8474 2.65016 20.2479 3.25 20.2479H15.25C15.8498 20.2479 16.2498 19.8474 16.25 19.247V11.2372C16.2501 10.6366 16.6501 10.2362 17.25 10.2362ZM8.84961 0.325086C9.14961 0.224972 9.45039 0.224972 9.65039 0.325086C9.75026 0.325346 9.85033 0.425298 9.9502 0.525281L13.9502 4.53016C14.3499 4.93062 14.3501 5.53118 13.9502 5.93153C13.7502 6.13176 13.55 6.23134 13.25 6.23134C12.95 6.23134 12.7498 6.13176 12.5498 5.93153L10.25 3.6288V14.2411C10.2499 14.8416 9.8499 15.2421 9.25 15.2421C8.6501 15.2421 8.25014 14.8416 8.25 14.2411V3.6288L5.9502 5.93153C5.5502 6.33199 4.9498 6.33199 4.5498 5.93153C4.14991 5.53118 4.15011 4.93062 4.5498 4.53016L8.5498 0.525281C8.64972 0.425251 8.74969 0.424949 8.84961 0.325086Z" fill="var(--fill-0, #4E8BF4)"/>
<path d="M18.25 11.2372H18.5V11.2372L18.25 11.2372ZM18.25 19.247L18.5 19.247V19.247H18.25ZM0.25 19.247H0V19.247L0.25 19.247ZM0.25 11.2372L0 11.2372V11.2372H0.25ZM2.25 11.2372H2.5V11.2372L2.25 11.2372ZM2.25 19.247H2V19.247L2.25 19.247ZM16.25 19.247L16.5 19.247V19.247H16.25ZM16.25 11.2372L16 11.2372V11.2372H16.25ZM8.84961 0.325086L8.77047 0.0879417L8.71457 0.106598L8.67288 0.148262L8.84961 0.325086ZM9.65039 0.325086L9.53849 0.548641L9.59101 0.574932L9.64974 0.575085L9.65039 0.325086ZM9.9502 0.525281L10.1271 0.348612L10.1271 0.348605L9.9502 0.525281ZM13.9502 4.53016L14.1271 4.35355L14.1271 4.35349L13.9502 4.53016ZM13.9502 5.93153L14.1271 6.10821L14.1271 6.10821L13.9502 5.93153ZM12.5498 5.93153L12.3729 6.1082L12.3729 6.10821L12.5498 5.93153ZM10.25 3.6288L10.4269 3.45213L10 3.0247V3.6288H10.25ZM10.25 14.2411L10.5 14.2412V14.2411H10.25ZM8.25 14.2411H8V14.2412L8.25 14.2411ZM8.25 3.6288H8.5V3.0247L8.07311 3.45213L8.25 3.6288ZM5.9502 5.93153L6.12707 6.10821L6.12708 6.1082L5.9502 5.93153ZM4.5498 5.93153L4.37293 6.10821L4.37293 6.10821L4.5498 5.93153ZM4.5498 4.53016L4.37292 4.35349L4.37286 4.35355L4.5498 4.53016ZM8.5498 0.525281L8.37293 0.348605L8.37292 0.348612L8.5498 0.525281ZM17.25 10.2362V10.4862C17.4931 10.4862 17.6763 10.5662 17.7981 10.6882C17.9199 10.8101 18 10.9937 18 11.2372L18.25 11.2372L18.5 11.2372C18.5 10.8801 18.38 10.5632 18.1518 10.3348C17.9236 10.1064 17.6069 9.98622 17.25 9.98622V10.2362ZM18.25 11.2372H18V19.247H18.25H18.5V11.2372H18.25ZM18.25 19.247L18 19.2469C17.9998 20.8108 16.8115 21.9999 15.25 21.9999V22.2499V22.4999C17.0882 22.4999 18.4997 21.0865 18.5 19.247L18.25 19.247ZM15.25 22.2499V21.9999H3.25V22.2499V22.4999H15.25V22.2499ZM3.25 22.2499V21.9999C1.68848 21.9999 0.500226 20.8108 0.5 19.2469L0.25 19.247L0 19.247C0.000266135 21.0865 1.41184 22.4999 3.25 22.4999V22.2499ZM0.25 19.247H0.5V11.2372H0.25H0V19.247H0.25ZM0.25 11.2372L0.5 11.2372C0.500033 10.9937 0.580069 10.8101 0.701917 10.6882C0.82374 10.5662 1.00692 10.4862 1.25 10.4862V10.2362V9.98622C0.893135 9.98622 0.57636 10.1064 0.348188 10.3348C0.120042 10.5632 4.7788e-05 10.8801 0 11.2372L0.25 11.2372ZM1.25 10.2362V10.4862C1.49308 10.4862 1.67626 10.5662 1.79808 10.6882C1.91993 10.8101 1.99997 10.9937 2 11.2372L2.25 11.2372L2.5 11.2372C2.49995 10.8801 2.37996 10.5632 2.15181 10.3348C1.92364 10.1064 1.60686 9.98622 1.25 9.98622V10.2362ZM2.25 11.2372H2V19.247H2.25H2.5V11.2372H2.25ZM2.25 19.247L2 19.247C2.00013 19.604 2.12015 19.9209 2.34826 20.1493C2.57641 20.3777 2.89314 20.4979 3.25 20.4979V20.2479V19.9979C3.00702 19.9979 2.82386 19.9179 2.70202 19.7959C2.58014 19.6739 2.50009 19.4904 2.5 19.2469L2.25 19.247ZM3.25 20.2479V20.4979H15.25V20.2479V19.9979H3.25V20.2479ZM15.25 20.2479V20.4979C15.6069 20.4979 15.9236 20.3777 16.1517 20.1493C16.3798 19.9209 16.4999 19.604 16.5 19.247L16.25 19.247L16 19.2469C15.9999 19.4904 15.9199 19.6739 15.798 19.7959C15.6761 19.9179 15.493 19.9979 15.25 19.9979V20.2479ZM16.25 19.247H16.5V11.2372H16.25H16V19.247H16.25ZM16.25 11.2372L16.5 11.2372C16.5 10.9937 16.5801 10.8101 16.7019 10.6882C16.8237 10.5662 17.0069 10.4862 17.25 10.4862V10.2362V9.98622C16.8931 9.98622 16.5764 10.1064 16.3482 10.3348C16.12 10.5632 16 10.8801 16 11.2372L16.25 11.2372ZM8.84961 0.325086L8.92875 0.562229C9.19215 0.474328 9.41877 0.488716 9.53849 0.548641L9.65039 0.325086L9.7623 0.10153C9.48201 -0.0387722 9.10707 -0.0243843 8.77047 0.0879417L8.84961 0.325086ZM9.65039 0.325086L9.64974 0.575085C9.61837 0.575003 9.61451 0.560931 9.65022 0.587728C9.68323 0.612509 9.72022 0.648802 9.77332 0.701957L9.9502 0.525281L10.1271 0.348605C10.0803 0.301776 10.0173 0.238102 9.95037 0.187846C9.8861 0.139606 9.78228 0.0754285 9.65104 0.0750864L9.65039 0.325086ZM9.9502 0.525281L9.77331 0.70195L13.7733 4.70683L13.9502 4.53016L14.1271 4.35349L10.1271 0.348612L9.9502 0.525281ZM13.9502 4.53016L13.7733 4.70677C14.0756 5.0097 14.0756 5.45218 13.7733 5.75486L13.9502 5.93153L14.1271 6.10821C14.6245 5.61017 14.6242 4.85153 14.1271 4.35355L13.9502 4.53016ZM13.9502 5.93153L13.7733 5.75485C13.6882 5.84007 13.6129 5.89397 13.5362 5.92799C13.4606 5.96155 13.371 5.98134 13.25 5.98134V6.23134V6.48134C13.429 6.48134 13.5895 6.45134 13.739 6.38505C13.8874 6.31922 14.0122 6.22322 14.1271 6.10821L13.9502 5.93153ZM13.25 6.23134V5.98134C13.129 5.98134 13.0394 5.96155 12.9638 5.92799C12.8871 5.89397 12.8118 5.84007 12.7267 5.75485L12.5498 5.93153L12.3729 6.10821C12.4878 6.22322 12.6126 6.31922 12.761 6.38505C12.9105 6.45134 13.071 6.48134 13.25 6.48134V6.23134ZM12.5498 5.93153L12.7267 5.75487L10.4269 3.45213L10.25 3.6288L10.0731 3.80546L12.3729 6.1082L12.5498 5.93153ZM10.25 3.6288H10V14.2411H10.25H10.5V3.6288H10.25ZM10.25 14.2411L10 14.241C9.99994 14.4846 9.9199 14.6681 9.79804 14.7901C9.67621 14.9121 9.49303 14.9921 9.25 14.9921V15.2421V15.4921C9.60686 15.4921 9.92362 15.3719 10.1518 15.1435C10.3799 14.9151 10.4999 14.5981 10.5 14.2412L10.25 14.2411ZM9.25 15.2421V14.9921C9.00697 14.9921 8.82379 14.9121 8.70196 14.7901C8.5801 14.6681 8.50006 14.4846 8.5 14.241L8.25 14.2411L8 14.2412C8.00008 14.5981 8.12009 14.9151 8.34822 15.1435C8.57638 15.3719 8.89314 15.4921 9.25 15.4921V15.2421ZM8.25 14.2411H8.5V3.6288H8.25H8V14.2411H8.25ZM8.25 3.6288L8.07311 3.45213L5.77331 5.75487L5.9502 5.93153L6.12708 6.1082L8.42689 3.80546L8.25 3.6288ZM5.9502 5.93153L5.77332 5.75485C5.47097 6.05754 5.02903 6.05754 4.72668 5.75485L4.5498 5.93153L4.37293 6.10821C4.87058 6.60643 5.62942 6.60643 6.12707 6.10821L5.9502 5.93153ZM4.5498 5.93153L4.72668 5.75486C4.42435 5.45218 4.42439 5.0097 4.72675 4.70677L4.5498 4.53016L4.37286 4.35355C3.87583 4.85153 3.87547 5.61017 4.37293 6.10821L4.5498 5.93153ZM4.5498 4.53016L4.72669 4.70683L8.72669 0.70195L8.5498 0.525281L8.37292 0.348612L4.37292 4.35349L4.5498 4.53016ZM8.5498 0.525281L8.72668 0.701957C8.74521 0.683411 8.76196 0.673578 8.81178 0.648591C8.86176 0.623529 8.94495 0.583251 9.02634 0.501909L8.84961 0.325086L8.67288 0.148262C8.65435 0.166784 8.6376 0.176588 8.58763 0.20165C8.53751 0.226787 8.45432 0.26712 8.37293 0.348605L8.5498 0.525281Z" fill="var(--stroke-0, #4E8BF4)"/>
</g>
<mask id="mask0_437_48598" style="mask-type:luminance" maskUnits="userSpaceOnUse" x="0" y="0" width="19" height="23">
<g id="Mask_2">
<path d="M17.25 10.2362C17.8499 10.2362 18.2499 10.6366 18.25 11.2372V19.247C18.2498 20.9487 16.9498 22.2499 15.25 22.2499H3.25C1.55016 22.2499 0.250246 20.9487 0.25 19.247V11.2372C0.25008 10.6366 0.65006 10.2362 1.25 10.2362C1.84994 10.2362 2.24992 10.6366 2.25 11.2372V19.247C2.25021 19.8474 2.65016 20.2479 3.25 20.2479H15.25C15.8498 20.2479 16.2498 19.8474 16.25 19.247V11.2372C16.2501 10.6366 16.6501 10.2362 17.25 10.2362ZM8.84961 0.325086C9.14961 0.224972 9.45039 0.224972 9.65039 0.325086C9.75026 0.325346 9.85033 0.425298 9.9502 0.525281L13.9502 4.53016C14.3499 4.93062 14.3501 5.53118 13.9502 5.93153C13.7502 6.13176 13.55 6.23134 13.25 6.23134C12.95 6.23134 12.7498 6.13176 12.5498 5.93153L10.25 3.6288V14.2411C10.2499 14.8416 9.8499 15.2421 9.25 15.2421C8.6501 15.2421 8.25014 14.8416 8.25 14.2411V3.6288L5.9502 5.93153C5.5502 6.33199 4.9498 6.33199 4.5498 5.93153C4.14991 5.53118 4.15011 4.93062 4.5498 4.53016L8.5498 0.525281C8.64972 0.425251 8.74969 0.424949 8.84961 0.325086Z" fill="var(--fill-0, white)"/>
<path d="M18.25 11.2372H18.5V11.2372L18.25 11.2372ZM18.25 19.247L18.5 19.247V19.247H18.25ZM0.25 19.247H0V19.247L0.25 19.247ZM0.25 11.2372L0 11.2372V11.2372H0.25ZM2.25 11.2372H2.5V11.2372L2.25 11.2372ZM2.25 19.247H2V19.247L2.25 19.247ZM16.25 19.247L16.5 19.247V19.247H16.25ZM16.25 11.2372L16 11.2372V11.2372H16.25ZM8.84961 0.325086L8.77047 0.0879417L8.71457 0.106598L8.67288 0.148262L8.84961 0.325086ZM9.65039 0.325086L9.53849 0.548641L9.59101 0.574932L9.64974 0.575085L9.65039 0.325086ZM9.9502 0.525281L10.1271 0.348612L10.1271 0.348605L9.9502 0.525281ZM13.9502 4.53016L14.1271 4.35355L14.1271 4.35349L13.9502 4.53016ZM13.9502 5.93153L14.1271 6.10821L14.1271 6.10821L13.9502 5.93153ZM12.5498 5.93153L12.3729 6.1082L12.3729 6.10821L12.5498 5.93153ZM10.25 3.6288L10.4269 3.45213L10 3.0247V3.6288H10.25ZM10.25 14.2411L10.5 14.2412V14.2411H10.25ZM8.25 14.2411H8V14.2412L8.25 14.2411ZM8.25 3.6288H8.5V3.0247L8.07311 3.45213L8.25 3.6288ZM5.9502 5.93153L6.12707 6.10821L6.12708 6.1082L5.9502 5.93153ZM4.5498 5.93153L4.37293 6.10821L4.37293 6.10821L4.5498 5.93153ZM4.5498 4.53016L4.37292 4.35349L4.37286 4.35355L4.5498 4.53016ZM8.5498 0.525281L8.37293 0.348605L8.37292 0.348612L8.5498 0.525281ZM17.25 10.2362V10.4862C17.4931 10.4862 17.6763 10.5662 17.7981 10.6882C17.9199 10.8101 18 10.9937 18 11.2372L18.25 11.2372L18.5 11.2372C18.5 10.8801 18.38 10.5632 18.1518 10.3348C17.9236 10.1064 17.6069 9.98622 17.25 9.98622V10.2362ZM18.25 11.2372H18V19.247H18.25H18.5V11.2372H18.25ZM18.25 19.247L18 19.2469C17.9998 20.8108 16.8115 21.9999 15.25 21.9999V22.2499V22.4999C17.0882 22.4999 18.4997 21.0865 18.5 19.247L18.25 19.247ZM15.25 22.2499V21.9999H3.25V22.2499V22.4999H15.25V22.2499ZM3.25 22.2499V21.9999C1.68848 21.9999 0.500226 20.8108 0.5 19.2469L0.25 19.247L0 19.247C0.000266135 21.0865 1.41184 22.4999 3.25 22.4999V22.2499ZM0.25 19.247H0.5V11.2372H0.25H0V19.247H0.25ZM0.25 11.2372L0.5 11.2372C0.500033 10.9937 0.580069 10.8101 0.701917 10.6882C0.82374 10.5662 1.00692 10.4862 1.25 10.4862V10.2362V9.98622C0.893135 9.98622 0.57636 10.1064 0.348188 10.3348C0.120042 10.5632 4.7788e-05 10.8801 0 11.2372L0.25 11.2372ZM1.25 10.2362V10.4862C1.49308 10.4862 1.67626 10.5662 1.79808 10.6882C1.91993 10.8101 1.99997 10.9937 2 11.2372L2.25 11.2372L2.5 11.2372C2.49995 10.8801 2.37996 10.5632 2.15181 10.3348C1.92364 10.1064 1.60686 9.98622 1.25 9.98622V10.2362ZM2.25 11.2372H2V19.247H2.25H2.5V11.2372H2.25ZM2.25 19.247L2 19.247C2.00013 19.604 2.12015 19.9209 2.34826 20.1493C2.57641 20.3777 2.89314 20.4979 3.25 20.4979V20.2479V19.9979C3.00702 19.9979 2.82386 19.9179 2.70202 19.7959C2.58014 19.6739 2.50009 19.4904 2.5 19.2469L2.25 19.247ZM3.25 20.2479V20.4979H15.25V20.2479V19.9979H3.25V20.2479ZM15.25 20.2479V20.4979C15.6069 20.4979 15.9236 20.3777 16.1517 20.1493C16.3798 19.9209 16.4999 19.604 16.5 19.247L16.25 19.247L16 19.2469C15.9999 19.4904 15.9199 19.6739 15.798 19.7959C15.6761 19.9179 15.493 19.9979 15.25 19.9979V20.2479ZM16.25 19.247H16.5V11.2372H16.25H16V19.247H16.25ZM16.25 11.2372L16.5 11.2372C16.5 10.9937 16.5801 10.8101 16.7019 10.6882C16.8237 10.5662 17.0069 10.4862 17.25 10.4862V10.2362V9.98622C16.8931 9.98622 16.5764 10.1064 16.3482 10.3348C16.12 10.5632 16 10.8801 16 11.2372L16.25 11.2372ZM8.84961 0.325086L8.92875 0.562229C9.19215 0.474328 9.41877 0.488716 9.53849 0.548641L9.65039 0.325086L9.7623 0.10153C9.48201 -0.0387722 9.10707 -0.0243843 8.77047 0.0879417L8.84961 0.325086ZM9.65039 0.325086L9.64974 0.575085C9.61837 0.575003 9.61451 0.560931 9.65022 0.587728C9.68323 0.612509 9.72022 0.648802 9.77332 0.701957L9.9502 0.525281L10.1271 0.348605C10.0803 0.301776 10.0173 0.238102 9.95037 0.187846C9.8861 0.139606 9.78228 0.0754285 9.65104 0.0750864L9.65039 0.325086ZM9.9502 0.525281L9.77331 0.70195L13.7733 4.70683L13.9502 4.53016L14.1271 4.35349L10.1271 0.348612L9.9502 0.525281ZM13.9502 4.53016L13.7733 4.70677C14.0756 5.0097 14.0756 5.45218 13.7733 5.75486L13.9502 5.93153L14.1271 6.10821C14.6245 5.61017 14.6242 4.85153 14.1271 4.35355L13.9502 4.53016ZM13.9502 5.93153L13.7733 5.75485C13.6882 5.84007 13.6129 5.89397 13.5362 5.92799C13.4606 5.96155 13.371 5.98134 13.25 5.98134V6.23134V6.48134C13.429 6.48134 13.5895 6.45134 13.739 6.38505C13.8874 6.31922 14.0122 6.22322 14.1271 6.10821L13.9502 5.93153ZM13.25 6.23134V5.98134C13.129 5.98134 13.0394 5.96155 12.9638 5.92799C12.8871 5.89397 12.8118 5.84007 12.7267 5.75485L12.5498 5.93153L12.3729 6.10821C12.4878 6.22322 12.6126 6.31922 12.761 6.38505C12.9105 6.45134 13.071 6.48134 13.25 6.48134V6.23134ZM12.5498 5.93153L12.7267 5.75487L10.4269 3.45213L10.25 3.6288L10.0731 3.80546L12.3729 6.1082L12.5498 5.93153ZM10.25 3.6288H10V14.2411H10.25H10.5V3.6288H10.25ZM10.25 14.2411L10 14.241C9.99994 14.4846 9.9199 14.6681 9.79804 14.7901C9.67621 14.9121 9.49303 14.9921 9.25 14.9921V15.2421V15.4921C9.60686 15.4921 9.92362 15.3719 10.1518 15.1435C10.3799 14.9151 10.4999 14.5981 10.5 14.2412L10.25 14.2411ZM9.25 15.2421V14.9921C9.00697 14.9921 8.82379 14.9121 8.70196 14.7901C8.5801 14.6681 8.50006 14.4846 8.5 14.241L8.25 14.2411L8 14.2412C8.00008 14.5981 8.12009 14.9151 8.34822 15.1435C8.57638 15.3719 8.89314 15.4921 9.25 15.4921V15.2421ZM8.25 14.2411H8.5V3.6288H8.25H8V14.2411H8.25ZM8.25 3.6288L8.07311 3.45213L5.77331 5.75487L5.9502 5.93153L6.12708 6.1082L8.42689 3.80546L8.25 3.6288ZM5.9502 5.93153L5.77332 5.75485C5.47097 6.05754 5.02903 6.05754 4.72668 5.75485L4.5498 5.93153L4.37293 6.10821C4.87058 6.60643 5.62942 6.60643 6.12707 6.10821L5.9502 5.93153ZM4.5498 5.93153L4.72668 5.75486C4.42435 5.45218 4.42439 5.0097 4.72675 4.70677L4.5498 4.53016L4.37286 4.35355C3.87583 4.85153 3.87547 5.61017 4.37293 6.10821L4.5498 5.93153ZM4.5498 4.53016L4.72669 4.70683L8.72669 0.70195L8.5498 0.525281L8.37292 0.348612L4.37292 4.35349L4.5498 4.53016ZM8.5498 0.525281L8.72668 0.701957C8.74521 0.683411 8.76196 0.673578 8.81178 0.648591C8.86176 0.623529 8.94495 0.583251 9.02634 0.501909L8.84961 0.325086L8.67288 0.148262C8.65435 0.166784 8.6376 0.176588 8.58763 0.20165C8.53751 0.226787 8.45432 0.26712 8.37293 0.348605L8.5498 0.525281Z" fill="var(--stroke-0, white)"/>
</g>
</mask>
<g mask="url(#mask0_437_48598)">
</g>
</g>
</svg>
