<svg preserveAspectRatio="none" width="100%" height="100%" overflow="visible" style="display: block;" viewBox="0 0 25.1856 22.1667" fill="none" xmlns="http://www.w3.org/2000/svg">
<g id="Group 3">
<path id="Shape" fill-rule="evenodd" clip-rule="evenodd" d="M21.7996 20.2632C21.8248 20.2836 21.8393 20.2953 21.8422 20.2981C22.3122 20.6847 22.3794 21.329 22.0436 21.7801C21.8086 22.0378 21.5065 22.1667 21.1708 22.1667C20.9357 22.1667 20.7007 22.1022 20.4993 21.9412C20.3314 21.8123 18.4849 20.1693 16.437 17.8819C15.1277 16.4322 13.8519 15.6912 12.5761 15.7556C11.0989 15.7878 9.85674 16.851 9.15172 17.6242C7.10378 20.0082 5.05584 21.8123 4.88798 21.9412C4.68654 22.1022 4.45153 22.1667 4.21653 22.1667C3.8808 22.1667 3.54507 22.0378 3.34363 21.7801C2.97433 21.329 3.04148 20.6525 3.5115 20.2981C3.51441 20.2953 3.52872 20.2835 3.55346 20.2632C3.81356 20.0489 5.22645 18.885 6.66733 17.2376C6.67807 17.2238 6.69071 17.2076 6.70522 17.1889C6.82683 17.0321 7.07957 16.7063 7.43951 16.3033C7.58858 16.1082 7.75406 15.9092 7.92325 15.7058C8.59237 14.9011 9.31958 14.0266 9.31958 13.0495V9.1513C9.31958 8.11613 8.63911 7.3184 7.98923 6.55653C7.80987 6.34626 7.63284 6.13872 7.47308 5.92967L6.53304 4.8021C5.12909 3.22058 3.78064 2.1183 3.52184 1.90676C3.49596 1.8856 3.48098 1.87335 3.47793 1.87042C3.00791 1.51605 2.94076 0.839504 3.31006 0.388477C3.67936 -0.0625508 4.38439 -0.126983 4.85441 0.227395C4.85688 0.229291 4.8598 0.231529 4.86316 0.234106C5.08838 0.406681 7.2998 2.10116 9.18529 4.60881C10.3939 5.89746 11.6025 6.54178 12.7776 6.47735C14.1205 6.44513 15.262 5.54308 16.0006 4.8021C17.9813 2.16037 20.2979 0.356261 20.4657 0.227395C20.9357 -0.126983 21.6408 -0.0625508 22.0101 0.388477C22.3794 0.839504 22.3122 1.51605 21.8422 1.87042C21.8393 1.87325 21.8252 1.885 21.801 1.90526C21.549 2.11596 20.196 3.24723 18.7871 4.83432L17.7128 6.15519C17.5473 6.38544 17.3614 6.60591 17.1752 6.82672C16.606 7.50187 16.0341 8.18024 16.0341 9.1513V13.0495C16.0341 14.0674 16.8935 15.0853 17.6661 16.0004C17.8472 16.2148 18.0234 16.4236 18.1828 16.6255C18.2667 16.7221 18.3423 16.8188 18.4178 16.9154C18.4933 17.0121 18.5689 17.1087 18.6528 17.2054C20.0939 18.8824 21.535 20.049 21.7996 20.2632ZM15.0941 3.12686C15.0941 4.41551 14.0198 5.44643 12.6769 5.44643C11.3675 5.44643 10.2932 4.41551 10.2596 3.12686C10.2596 1.83821 11.3339 0.807288 12.6769 0.807288C14.0198 0.807288 15.0941 1.83821 15.0941 3.12686Z" fill="var(--fill-0, white)"/>
<path id="Combined Shape" opacity="0.6" d="M0.154349 6.96057C0.389285 6.70299 0.791713 6.63868 1.0938 6.86389C1.19451 6.92832 2.57115 7.99149 3.74615 9.53772C5.69336 11.9862 7.84283 10.4401 7.84283 10.4401C7.84276 13.521 5.14364 15.8346 5.1231 15.8522C3.67947 17.3019 1.19452 18.7839 1.0938 18.9449C0.99308 19.0414 0.825653 19.0738 0.691458 19.0739C0.490022 19.0739 0.28864 18.9771 0.154349 18.816C-0.0806397 18.5261 -0.0472116 18.1392 0.254935 17.9137C0.292108 17.8788 1.264 17.1387 2.2022 16.0455C2.26937 15.9489 2.43696 15.7231 2.67193 15.4655C3.10835 14.8534 3.81346 14.2093 3.81353 13.4684V12.3405C3.81337 11.5997 3.14251 10.9876 2.70611 10.3756L2.13482 9.66662C1.19484 8.60358 0.288506 7.86291 0.254935 7.86291C-0.0136468 7.6374 -0.08066 7.25052 0.154349 6.96057ZM24.0918 6.79944C24.3939 6.57414 24.7963 6.60641 25.0313 6.89612C25.2663 7.18606 25.2329 7.57295 24.9307 7.79846C24.8936 7.83339 23.9889 8.54128 23.0508 9.60217L22.4805 10.3112C22.0441 10.9232 21.3723 11.5674 21.3721 12.276V13.4039C21.3722 14.1448 22.0437 14.789 22.5137 15.401C22.7486 15.6586 22.9162 15.8843 22.9835 15.9811C23.955 17.0741 24.8934 17.846 24.9307 17.8492C25.2329 18.0748 25.2663 18.4938 25.0313 18.6871C24.897 18.8482 24.6956 18.9449 24.4942 18.9449C24.36 18.9449 24.226 18.9126 24.0918 18.816C23.9911 18.7194 21.5062 17.2374 20.0626 15.7877C20.0333 15.7627 17.3439 13.4515 17.3438 10.3756C17.3713 10.3949 19.5049 11.8738 21.4395 9.47326C22.6145 7.927 23.9911 6.86387 24.0918 6.79944ZM19.3243 7.25061C20.1299 7.25062 20.8016 7.86242 20.8018 8.6676C20.8018 9.44079 20.13 10.0856 19.3243 10.0856C18.5185 10.0856 17.8467 9.44079 17.8467 8.6676C17.847 7.89461 18.5187 7.25061 19.3243 7.25061ZM5.86138 7.21838C6.66696 7.21838 7.33865 7.86239 7.33892 8.63537C7.33892 9.44078 6.66713 10.0533 5.86138 10.0533C5.05573 10.0532 4.38482 9.4085 4.38482 8.63537C4.38509 7.86246 5.05589 7.21849 5.86138 7.21838Z" fill="var(--fill-0, white)"/>
</g>
</svg>
