<svg preserveAspectRatio="none" width="100%" height="100%" overflow="visible" style="display: block;" viewBox="0 0 29.701 27" fill="none" xmlns="http://www.w3.org/2000/svg">
<g id="Icon">
<path id="Fill 14" fill-rule="evenodd" clip-rule="evenodd" d="M27.0537 6.7745C25.467 9.15108 23.3499 9.42192 21.0827 7.98977C20.9307 7.88184 20.226 7.47708 20.0749 7.36914C16.4215 5.04553 12.7671 5.96398 10.3237 9.63779C9.28986 11.2049 11.6838 12.69 12.7168 11.1499C13.9772 9.23303 15.5899 8.69235 17.3537 9.287C16.4457 10.961 15.6654 12.636 14.557 15.0136C13.4476 17.3632 10.9781 19.2541 8.63543 17.7949C6.92104 16.7146 5.3847 19.335 7.07299 20.4154C10.2976 22.4152 14.0778 21.1989 16.0178 18.5525C16.0682 18.6054 16.1437 18.6334 16.2192 18.6594C17.8068 19.2541 19.8726 20.8211 20.5028 21.3618C21.133 21.9285 22.2163 24.7648 22.8465 26.1699C23.6277 27.8979 26.1466 26.6556 25.3663 24.9267C24.6355 23.3056 23.4254 20.0916 22.468 19.281C21.6877 18.6054 20.226 17.3902 18.9656 16.7146C19.7971 14.9326 20.7042 13.2037 21.6364 11.4747C24.6103 12.4471 27.4322 11.3128 29.4477 8.28759C30.4806 6.72053 28.0875 5.23442 27.0537 6.7745ZM21.7888 6.09677C23.3891 6.09677 24.6954 4.72596 24.6954 3.04787C24.6954 1.37082 23.3891 0 21.7888 0C20.1619 0 18.8556 1.37082 18.8556 3.04787C18.8556 4.72596 20.1619 6.09677 21.7888 6.09677V6.09677Z" fill="var(--fill-0, white)"/>
<g id="Line 2" opacity="0.33">
<path fill-rule="evenodd" clip-rule="evenodd" d="M8.66445 14.58H1.045Z" fill="var(--fill-0, white)"/>
<path d="M8.66445 14.58H1.045" stroke="var(--stroke-0, white)" stroke-width="2.09" stroke-linecap="round"/>
</g>
<g id="Line 2 Copy" opacity="0.33">
<path fill-rule="evenodd" clip-rule="evenodd" d="M19.0093 24.3H12.0839Z" fill="var(--fill-0, white)"/>
<path d="M19.0093 24.3H12.0839" stroke="var(--stroke-0, white)" stroke-width="2.09" stroke-linecap="round"/>
</g>
<g id="Line 2 Copy 2" opacity="0.33">
<path fill-rule="evenodd" clip-rule="evenodd" d="M6.59549 10.26H4.85473Z" fill="var(--fill-0, white)"/>
<path d="M6.59549 10.26H4.85473" stroke="var(--stroke-0, white)" stroke-width="2.09" stroke-linecap="round"/>
</g>
</g>
</svg>
