<svg preserveAspectRatio="none" width="100%" height="100%" overflow="visible" style="display: block;" viewBox="0 0 16 16" fill="none" xmlns="http://www.w3.org/2000/svg">
<path id="Mask" d="M15.6571 14.0571C16.1143 14.5143 16.1143 15.2 15.6571 15.6571C15.4286 15.8857 15.2 16 14.8571 16C14.5143 16 14.2857 15.8857 14.0571 15.6571L8 9.6L1.94286 15.6571C1.71429 15.8857 1.48571 16 1.14286 16C0.8 16 0.571429 15.8857 0.342857 15.6571C-0.114286 15.2 -0.114286 14.5143 0.342857 14.0571L6.4 8L0.342857 1.94286C-0.114286 1.48571 -0.114286 0.8 0.342857 0.342857C0.8 -0.114286 1.48571 -0.114286 1.94286 0.342857L8 6.4L14.0571 0.342857C14.5143 -0.114286 15.2 -0.114286 15.6571 0.342857C16.1143 0.8 16.1143 1.48571 15.6571 1.94286L9.6 8L15.6571 14.0571Z" fill="var(--fill-0, white)"/>
</svg>
