<svg preserveAspectRatio="none" width="100%" height="100%" overflow="visible" style="display: block;" viewBox="0 0 10 10" fill="none" xmlns="http://www.w3.org/2000/svg">
<path id="Mask Copy" d="M9.98301 3.76771C9.93771 3.57754 9.80181 3.48245 9.62061 3.43491L6.7214 3.00703L5.4077 0.249596C5.2718 -0.0831986 4.7282 -0.0831986 4.5923 0.249596L3.2786 2.95949L0.424689 3.43491C0.243488 3.43491 0.107588 3.57754 0.0169875 3.76771C-0.0283126 3.95787 0.0169875 4.14804 0.152888 4.24313L2.23669 6.38252L1.73839 9.42521C1.69309 9.61538 1.78369 9.80554 1.91959 9.90063C2.05549 9.99571 2.23669 10.0433 2.41789 9.94817L5 8.52191L7.58211 9.94817C7.67271 9.94817 7.71801 9.94817 7.80861 9.94817C7.89921 9.94817 7.98981 9.90063 8.08041 9.85309C8.21631 9.758 8.30691 9.56783 8.26161 9.37767L7.76331 6.33498L9.84711 4.19558C9.98301 4.1005 10.0283 3.91033 9.98301 3.76771Z" fill="var(--fill-0, #FFB230)"/>
</svg>
