<svg preserveAspectRatio="none" width="100%" height="100%" overflow="visible" style="display: block;" viewBox="0 0 19.8333 14.9742" fill="none" xmlns="http://www.w3.org/2000/svg">
<path id="Shape" d="M18.5208 7.0455H15.4338C13.6115 7.04524 11.9457 6.01565 11.1305 4.38579C11.0355 4.2099 10.8711 4.1017 10.6861 4.08509C10.4755 4.07117 10.2845 4.16898 10.1781 4.33892L8.62192 6.74239C8.42691 7.04571 8.4812 7.44424 8.74918 7.68341C9.35179 8.21381 10.1077 8.91986 11.05 9.83702C11.8478 10.6092 12.2464 11.7038 12.1322 12.8069L12.0026 13.8283C11.9191 14.4826 11.3624 14.9733 10.7024 14.9742C10.3278 14.9737 9.97029 14.8123 9.72151 14.5307C9.47274 14.2491 9.35656 13.8745 9.4024 13.5015L9.51903 12.558C9.55073 12.2417 9.44002 11.9384 9.21948 11.724C8.47704 11.0051 7.92764 10.4858 7.47745 10.0795C7.32031 9.93664 7.10665 9.86948 6.89436 9.897C6.68207 9.92452 6.4926 10.0439 6.37618 10.2236L6.07393 10.6904C5.18717 12.0605 3.66656 12.8879 2.03459 12.8882H1.3125C0.587626 12.8882 0 12.3005 0 11.5757C0 10.8508 0.587626 10.2632 1.3125 10.2632H2.03117C2.77305 10.263 3.46424 9.88697 3.86729 9.26421L7.20165 4.111C7.35609 3.87301 7.35814 3.56632 7.20655 3.32579C7.05497 3.08527 6.77742 2.95478 6.49549 2.9915L2.3583 3.54351C2.30087 3.55104 2.24199 3.55486 2.18306 3.55483C1.80258 3.55445 1.44081 3.38879 1.1918 3.10083C0.942792 2.81287 0.831083 2.43097 0.885649 2.05421C0.987929 1.45509 1.48544 0.989081 2.10086 0.925159L8.76356 0.0358192C8.94453 0.0119856 9.12809 0 9.31233 0C10.8787 0.00101761 12.3105 0.886417 13.0114 2.28755L13.478 3.22082C13.8485 3.96156 14.6055 4.42953 15.4337 4.42983H18.5208C19.2453 4.42983 19.8327 5.01683 19.8333 5.74117C19.8289 6.46277 19.2426 7.04551 18.5208 7.0455Z" fill="var(--fill-0, white)"/>
</svg>
