<svg preserveAspectRatio="none" width="100%" height="100%" overflow="visible" style="display: block;" viewBox="0 0 21.2918 14.2917" fill="none" xmlns="http://www.w3.org/2000/svg">
<g id="Bold">
<path id="Shape" opacity="0.6" d="M4.9585 1.16667C4.9585 0.522336 4.43616 1.3113e-06 3.79183 1.3113e-06C3.1475 1.3113e-06 2.62516 0.522336 2.62516 1.16667V8.16667C2.62516 8.811 3.1475 9.33334 3.79183 9.33334C4.43616 9.33334 4.9585 8.811 4.9585 8.16667V1.16667Z" fill="var(--fill-0, white)"/>
<path id="Shape_2" opacity="0.6" d="M13.1252 9.33333C12.4808 9.33333 11.9585 9.85567 11.9585 10.5C11.9585 11.1443 12.4808 11.6667 13.1252 11.6667H20.1252C20.7695 11.6667 21.2918 11.1443 21.2918 10.5C21.2918 9.85567 20.7695 9.33333 20.1252 9.33333H13.1252Z" fill="var(--fill-0, white)"/>
<circle id="Oval" opacity="0.6" cx="1.16683" cy="1.45833" r="1.16667" fill="var(--fill-0, white)"/>
<circle id="Oval_2" opacity="0.6" cx="1.16683" cy="4.66667" r="1.16667" fill="var(--fill-0, white)"/>
<circle id="Oval_3" opacity="0.6" cx="1.16683" cy="7.875" r="1.16667" fill="var(--fill-0, white)"/>
<circle id="Oval_4" opacity="0.6" cx="19.8335" cy="13.125" r="1.16667" fill="var(--fill-0, white)"/>
<circle id="Oval_5" opacity="0.6" cx="16.6252" cy="13.125" r="1.16667" fill="var(--fill-0, white)"/>
<circle id="Oval_6" opacity="0.6" cx="13.4168" cy="13.125" r="1.16667" fill="var(--fill-0, white)"/>
</g>
</svg>
